<?xml version="1.0" encoding="utf-8"?>
<!-- Generator: Adobe Illustrator 27.9.0, SVG Export Plug-In . SVG Version: 6.00 Build 0)  -->
<svg version="1.1" id="Calque_1" xmlns="http://www.w3.org/2000/svg" xmlns:xlink="http://www.w3.org/1999/xlink" x="0px" y="0px"
	 viewBox="0 0 30 30" style="enable-background:new 0 0 30 30;" xml:space="preserve">
<style type="text/css">
	.st0{fill:#A254ED;}
</style>
<g>
	<path class="st0" d="M7.2,22.9c-0.3,0-0.5-0.1-0.7-0.3l-2.9-2.9c-0.4-0.4-0.4-1,0-1.4l2.9-2.9c0.4-0.4,1-0.4,1.4,0
		c0.4,0.4,0.4,1,0,1.4l-1.3,1.3H17c0.6,0,1,0.4,1,1s-0.4,1-1,1H6.6l1.3,1.3C8.4,21.8,8.1,22.9,7.2,22.9z"/>
	<path class="st0" d="M22.8,15c-0.9,0-1.3-1.1-0.7-1.7l1.3-1.3H13c-0.6,0-1-0.4-1-1c0-0.6,0.4-1,1-1h10.4l-1.3-1.3
		c-0.4-0.4-0.4-1,0-1.4c0.4-0.4,1-0.4,1.4,0l2.9,2.9c0.4,0.4,0.4,1,0,1.4l-2.9,2.9C23.3,14.9,23.1,15,22.8,15z"/>
</g>
</svg>
