<?xml version="1.0" encoding="utf-8"?>
<!-- Generator: Adobe Illustrator 27.9.0, SVG Export Plug-In . SVG Version: 6.00 Build 0)  -->
<svg version="1.1" id="Calque_1" xmlns="http://www.w3.org/2000/svg" xmlns:xlink="http://www.w3.org/1999/xlink" x="0px" y="0px"
	 viewBox="0 0 30 30" style="enable-background:new 0 0 30 30;" xml:space="preserve">
<style type="text/css">
	.st0{fill:#A254ED;}
</style>
<path class="st0" d="M24.7,14.6c-0.3-4.8-4.2-8.6-8.9-8.9V4.3h-1.3v1.3C9.7,6,5.8,9.8,5.5,14.6H4.2v1.3h1.3c0.3,4.8,4.2,8.6,8.9,8.9
	v1.3h1.3v-1.3c4.8-0.3,8.6-4.2,8.9-8.9H26v-1.3H24.7z M14.4,7v2.6c-2.7,0.3-4.8,2.4-5.1,5.1H6.8C7.1,10.5,10.4,7.3,14.4,7z
	 M14.4,23.5c-4.1-0.3-7.3-3.6-7.7-7.7h2.6c0.3,2.7,2.4,4.8,5.1,5.1V23.5z M14.4,18.4v1.2c-2-0.3-3.5-1.8-3.8-3.8h1.2v-1.3h-1.2
	c0.3-2,1.8-3.5,3.8-3.8v1.2h1.3v-1.2c2,0.3,3.5,1.8,3.8,3.8h-1.2v1.3h1.2c-0.3,2-1.8,3.5-3.8,3.8v-1.2H14.4z M15.7,23.5V21
	c2.7-0.3,4.8-2.4,5.1-5.1h2.6C23.1,20,19.8,23.2,15.7,23.5z M20.8,14.6c-0.3-2.7-2.4-4.8-5.1-5.1V7c4.1,0.3,7.3,3.6,7.7,7.7H20.8z"
	/>
<path class="st0" d="M15.1,13.3c-1.1,0-1.9,0.9-1.9,1.9s0.9,1.9,1.9,1.9s1.9-0.9,1.9-1.9S16.1,13.3,15.1,13.3z"/>
</svg>
