<?xml version="1.0" encoding="utf-8"?>
<!-- Generator: Adobe Illustrator 27.9.0, SVG Export Plug-In . SVG Version: 6.00 Build 0)  -->
<svg version="1.1" id="Calque_1" xmlns="http://www.w3.org/2000/svg" xmlns:xlink="http://www.w3.org/1999/xlink" x="0px" y="0px"
	 viewBox="0 0 30 30" style="enable-background:new 0 0 30 30;" xml:space="preserve">
<style type="text/css">
	.st0{fill:#A254ED;}
</style>
<g>
	<g>
		<path class="st0" d="M6.9,10.4V8.9c0-1,0.8-1.9,1.9-1.9h1.8c0.5,0,0.9-0.4,0.9-0.9v0c0-0.5-0.4-0.9-0.9-0.9H8.7
			C6.7,5.2,5,6.8,5,8.9v1.5c0,0.5,0.4,0.9,0.9,0.9h0C6.5,11.3,6.9,10.9,6.9,10.4z"/>
		<path class="st0" d="M6.9,21.6v-2.2c0-0.5-0.4-0.9-0.9-0.9h0c-0.5,0-0.9,0.4-0.9,0.9v2.3c0,2.1,1.7,3.7,3.7,3.7h1.9
			c0.5,0,0.9-0.4,0.9-0.9v0c0-0.5-0.4-0.9-0.9-0.9H8.8C7.7,23.4,6.9,22.6,6.9,21.6z"/>
	</g>
	<g>
		<path class="st0" d="M23.3,8.9v1.4c0,0.5,0.4,0.9,0.9,0.9h0c0.5,0,0.9-0.4,0.9-0.9V8.9c0-2.1-1.7-3.7-3.7-3.7h-1.9
			c-0.5,0-0.9,0.4-0.9,0.9v0c0,0.5,0.4,0.9,0.9,0.9h1.8C22.4,7.1,23.3,7.9,23.3,8.9z"/>
		<path class="st0" d="M23.3,19.3v2.2c0,1-0.8,1.9-1.9,1.9h-1.8c-0.5,0-0.9,0.4-0.9,0.9v0c0,0.5,0.4,0.9,0.9,0.9h1.9
			c2.1,0,3.7-1.7,3.7-3.7v-2.3c0-0.5-0.4-0.9-0.9-0.9h0C23.7,18.4,23.3,18.8,23.3,19.3z"/>
	</g>
	<path class="st0" d="M20,9.4h-9.8c-0.4,0-0.8,0.3-0.8,0.8v3.5c0,0.4,0.3,0.8,0.8,0.8h0c0.4,0,0.8-0.3,0.8-0.8v-1.8
		c0-0.4,0.3-0.8,0.8-0.8h6.7c0.4,0,0.8,0.3,0.8,0.8v1.8c0,0.4,0.3,0.8,0.8,0.8h0c0.4,0,0.8-0.3,0.8-0.8v-3.5
		C20.7,9.8,20.4,9.4,20,9.4z"/>
	<path class="st0" d="M22.4,16.8c0-0.5-0.4-0.8-0.8-0.8h-0.8H9.2H8.4c-0.5,0-0.8,0.4-0.8,0.8v0c0,0.5,0.4,0.8,0.8,0.8h0
		c0.5,0,0.8,0.4,0.8,0.8v1.7c0,0.5,0.4,0.8,0.8,0.8h9.9c0.5,0,0.8-0.4,0.8-0.8v-1.7c0-0.5,0.4-0.8,0.8-0.8h0
		C22,17.7,22.4,17.3,22.4,16.8L22.4,16.8z"/>
</g>
</svg>
