<?xml version="1.0" encoding="utf-8"?>
<!-- Generator: Adobe Illustrator 27.9.0, SVG Export Plug-In . SVG Version: 6.00 Build 0)  -->
<svg version="1.1" id="Calque_1" xmlns="http://www.w3.org/2000/svg" xmlns:xlink="http://www.w3.org/1999/xlink" x="0px" y="0px"
	 viewBox="0 0 30 30" style="enable-background:new 0 0 30 30;" xml:space="preserve">
<style type="text/css">
	.st0{fill:#A254ED;}
</style>
<g id="Calque_2_00000138541194359499194140000015156750779612383885_">
	<g>
		<path class="st0" d="M25.7,14.9H22c-0.1-3.7-3.2-6.6-6.9-6.6s-6.7,2.9-6.9,6.6H4.5c-0.1,0-0.2,0-0.3,0.1c-0.1,0.1-0.1,0.2-0.1,0.3
			s0,0.2,0.1,0.3s0.2,0.1,0.3,0.1h3.7c0.1,1.3,0.5,2.5,1.2,3.6l-1.3,1.3c-0.1-0.2-0.3-0.3-0.4-0.2c-0.2,0-0.3,0.1-0.4,0.2l-2.8,2.8
			C4.2,23.7,4,24.2,4,24.6c0,0.5,0.2,0.9,0.5,1.2c0.3,0.3,0.8,0.5,1.2,0.5c0.5,0,0.9-0.2,1.2-0.5L8.7,24c1.9,1.4,4.2,2.1,6.5,2.1
			c2.6,0,5.2-0.9,7.2-2.7c0.2,0.1,0.3,0.1,0.5,0.1s0.4-0.1,0.6-0.2s0.3-0.3,0.4-0.5s0.1-0.4,0.1-0.6s-0.1-0.4-0.3-0.6
			c-0.2-0.2-0.3-0.3-0.6-0.3c-0.2,0-0.4,0-0.6,0.1s-0.4,0.2-0.5,0.4c-0.1,0.2-0.2,0.4-0.2,0.6s0,0.3,0.1,0.4
			c-1.9,1.6-4.2,2.5-6.7,2.5c-2.1,0-4.2-0.7-6-1.9l0.5-0.5c0.1-0.1,0.2-0.3,0.2-0.4c0-0.2,0-0.3-0.1-0.5l1.3-1.3
			c1.2,0.8,2.6,1.3,4,1.3c3.7,0,6.7-2.9,6.9-6.6h3.7c0.1,0,0.2,0,0.3-0.1c0.1-0.1,0.1-0.2,0.1-0.3s0-0.2-0.1-0.3
			C25.9,14.9,25.8,14.9,25.7,14.9z M15.1,19.6c-1.1,0-2.2-0.4-3-1.2c-0.8-0.7-1.3-1.8-1.4-2.9h1.1c0.1,0,0.1,0,0.2,0
			c0.1,0,0.1-0.1,0.1-0.1l1.3-2.1l0.9,5.3c0.1,0.4,0.6,0.4,0.7,0.1l1.5-4.3l1.1,2.5c0,0.1,0.1,0.1,0.1,0.1c0.1,0,0.1,0.1,0.2,0.1
			s0.1,0,0.2,0s0.1-0.1,0.1-0.1l0.9-1.3h0.3c-0.1,1.1-0.6,2.1-1.4,2.9C17.3,19.2,16.2,19.6,15.1,19.6z M19.1,14.9
			c-0.1,0-0.1,0-0.2,0S18.8,15,18.8,15l-0.6,0.9L17,13.2c-0.1-0.3-0.6-0.3-0.7,0L14.9,17L14,12.2c0-0.3-0.5-0.4-0.7-0.1l-1.7,2.8
			h-0.9c0.1-1.1,0.6-2.1,1.4-2.9c0.8-0.7,1.9-1.2,3-1.2s2.2,0.4,3,1.2c0.8,0.7,1.3,1.8,1.4,2.9C19.5,14.9,19.1,14.9,19.1,14.9z"/>
		<path class="st0" d="M22.9,8c-0.1,0.1-0.2,0.1-0.3,0.1s-0.2,0-0.3-0.1c-1.8-1.8-4.3-2.9-6.9-3c-2.6-0.1-5.1,0.8-7.1,2.5
			c0.1,0.1,0.1,0.3,0.1,0.4c0,0.2-0.1,0.4-0.2,0.6c0,0.2-0.1,0.3-0.3,0.4C7.7,9,7.5,9,7.2,9C7,8.9,6.8,8.8,6.7,8.7
			C6.5,8.5,6.4,8.3,6.4,8.1s0-0.4,0.1-0.6c0-0.2,0.2-0.4,0.3-0.5C7,6.9,7.2,6.8,7.5,6.8c0.2,0,0.3,0,0.5,0.1c2-1.8,4.8-2.7,7.5-2.6
			c2.8,0.1,5.4,1.2,7.4,3.2C23,7.5,23,7.6,23,7.7C23,7.8,23,7.9,22.9,8z"/>
	</g>
</g>
</svg>
