<?xml version="1.0" encoding="utf-8"?>
<!-- Generator: Adobe Illustrator 27.9.0, SVG Export Plug-In . SVG Version: 6.00 Build 0)  -->
<svg version="1.1" id="Calque_1" xmlns="http://www.w3.org/2000/svg" xmlns:xlink="http://www.w3.org/1999/xlink" x="0px" y="0px"
	 viewBox="0 0 30 30" style="enable-background:new 0 0 30 30;" xml:space="preserve">
<style type="text/css">
	.st0{fill:#A254ED;}
</style>
<g>
	<path class="st0" d="M24.1,16.8v-1.5h-1.5v-9h-1.5v2.3l0,0c-3.3,3-8.7,3-12,0V6.2H7.6v9H6.1v1.5h1.5v4.5H6.1v3h4.5v-3H9.1v-0.8
		c3.3-3,8.7-3,12,0v0.8h-1.5v3h4.5v-3h-1.5v-4.5H24.1z M21.1,10.4v4.9h-1.9v-3.8C19.9,11.1,20.5,10.8,21.1,10.4z M14.3,15.2h-1.9
		v-3.4c0.6,0.2,1.2,0.3,1.9,0.3V15.2z M15.8,12.2c0.6,0,1.3-0.1,1.9-0.3v3.4h-1.9V12.2z M9.1,10.4c0.6,0.4,1.2,0.7,1.9,1v3.9H9.1
		V10.4z M21.1,18.6c-3.5-2.4-8.5-2.4-12,0v-1.8h12L21.1,18.6z"/>
</g>
</svg>
