<?xml version="1.0" encoding="utf-8"?>
<!-- Generator: Adobe Illustrator 27.9.0, SVG Export Plug-In . SVG Version: 6.00 Build 0)  -->
<svg version="1.1" id="Calque_1" xmlns="http://www.w3.org/2000/svg" xmlns:xlink="http://www.w3.org/1999/xlink" x="0px" y="0px"
	 viewBox="0 0 30 30" style="enable-background:new 0 0 30 30;" xml:space="preserve">
<style type="text/css">
	.st0{fill:#A254ED;}
</style>
<g>
	<polygon class="st0" points="14.8,3.9 14.8,3.9 14.8,3.9 14.8,3.9 14.8,3.9 9.9,11.1 12.7,11.1 13.5,9.9 12.3,9.9 14.8,6.3 
		17.2,9.9 16,9.9 16.8,11.1 19.6,11.1 	"/>
	<path class="st0" d="M11.2,26.1c-0.4,0-0.8-0.1-1.1-0.4c-0.3-0.3-0.4-0.6-0.4-1.1s0.1-0.8,0.4-1.1s0.6-0.4,1.1-0.4s0.8,0.1,1.1,0.4
		c0.3,0.3,0.4,0.6,0.4,1.1c0,0.4-0.1,0.8-0.4,1.1C12,26,11.6,26.1,11.2,26.1z"/>
	<path class="st0" d="M18.7,26.1c-0.4,0-0.8-0.1-1.1-0.4c-0.3-0.3-0.4-0.6-0.4-1.1s0.1-0.8,0.4-1.1c0.3-0.3,0.6-0.4,1.1-0.4
		c0.4,0,0.8,0.1,1.1,0.4c0.3,0.3,0.4,0.6,0.4,1.1c0,0.4-0.1,0.8-0.4,1.1C19.4,26,19.1,26.1,18.7,26.1z"/>
	<path class="st0" d="M17.6,19.4c0.3,0,0.5-0.1,0.8-0.2c0.2-0.1,0.4-0.3,0.6-0.6l2.7-4.8c0.1-0.3,0.1-0.5,0-0.8
		c-0.1-0.3-0.4-0.4-0.7-0.4H9.8l-0.7-1.5H6.7v1.5h1.5l2.7,5.7l-1,1.8c-0.3,0.5-0.2,1,0,1.5c0.3,0.5,0.7,0.7,1.3,0.7h9v-1.5h-9
		l0.8-1.5H17.6z M10.5,14.1h9.1l-2.1,3.7h-5.2L10.5,14.1z"/>
	<path class="st0" d="M12.3,17.9h5.2H12.3z"/>
</g>
</svg>
