<?xml version="1.0" encoding="utf-8"?>
<!-- Generator: Adobe Illustrator 27.9.0, SVG Export Plug-In . SVG Version: 6.00 Build 0)  -->
<svg version="1.1" id="Calque_1" xmlns="http://www.w3.org/2000/svg" xmlns:xlink="http://www.w3.org/1999/xlink" x="0px" y="0px"
	 viewBox="0 0 30 30" style="enable-background:new 0 0 30 30;" xml:space="preserve">
<style type="text/css">
	.st0{fill:#A254ED;}
</style>
<g>
	<path class="st0" d="M8.3,15.3c2.2-3.7,4.4-7.2,6.7-10.9c2.2,3.7,4.4,7.2,6.7,10.9c-0.1,0.1-0.2,0.2-0.4,0.3
		c-2,1.1-3.9,2.3-5.9,3.4c-0.2,0.1-0.5,0.2-0.6,0.1C12.7,17.8,10.5,16.6,8.3,15.3z M14.9,10.3c0.8,1.2,1.6,2.4,2.3,3.5
		c-0.4,0-0.6,0.1-0.9,0.1c0.6,1,1.4,0.4,2.2,0.5c-1.2-1.8-2.4-3.6-3.7-5.5c-1.3,1.9-2.5,3.7-3.7,5.5c0,0,0.1,0.1,0.1,0.1
		c0.7-0.2,1.6,0.4,2.1-0.6c-0.3,0-0.5-0.1-0.8-0.1C13.4,12.6,14.1,11.5,14.9,10.3z"/>
	<path class="st0" d="M21.3,16.7c-2.1,2.9-4.1,5.9-6.3,8.9c-2.2-3-4.3-6-6.4-8.9c0,0,0-0.1,0.1-0.1c0.2,0.1,0.3,0.2,0.5,0.3
		c1.8,1.1,3.6,2.2,5.4,3.3c0.4,0.2,0.6,0.2,1,0c1.7-1.1,3.4-2.2,5.2-3.2C20.8,16.8,21,16.7,21.3,16.7C21.2,16.6,21.2,16.7,21.3,16.7
		z"/>
</g>
</svg>
