<?xml version="1.0" encoding="utf-8"?>
<!-- Generator: Adobe Illustrator 27.9.0, SVG Export Plug-In . SVG Version: 6.00 Build 0)  -->
<svg version="1.1" xmlns="http://www.w3.org/2000/svg" xmlns:xlink="http://www.w3.org/1999/xlink" x="0px" y="0px"
	 viewBox="0 0 30 30" style="enable-background:new 0 0 30 30;" xml:space="preserve">
<style type="text/css">
	.st0{fill:#E0E0E0;}
</style>
<g id="Calque_1">
</g>
<g id="Calque_2">
	<g>
		<path class="st0" d="M25.7,14.6h-3.7C21.9,10.9,18.8,8,15.1,8s-6.7,2.9-6.9,6.6H4.5c-0.1,0-0.2,0-0.3,0.1
			c-0.1,0.1-0.1,0.2-0.1,0.3s0,0.2,0.1,0.3c0.1,0.1,0.2,0.1,0.3,0.1h3.7c0.1,1.3,0.5,2.5,1.2,3.6l-1.3,1.3C8,20.1,7.8,20,7.7,20.1
			c-0.2,0-0.3,0.1-0.4,0.2l-2.8,2.8c-0.3,0.3-0.5,0.8-0.5,1.2c0,0.5,0.2,0.9,0.5,1.2c0.3,0.3,0.8,0.5,1.2,0.5c0.5,0,0.9-0.2,1.2-0.5
			l1.8-1.8c1.9,1.4,4.2,2.1,6.5,2.1c2.6,0,5.2-0.9,7.2-2.7c0.2,0.1,0.3,0.1,0.5,0.1c0.2,0,0.4-0.1,0.6-0.2c0.2-0.1,0.3-0.3,0.4-0.5
			c0.1-0.2,0.1-0.4,0.1-0.6c0-0.2-0.1-0.4-0.3-0.6c-0.2-0.2-0.3-0.3-0.6-0.3c-0.2,0-0.4,0-0.6,0.1c-0.2,0.1-0.4,0.2-0.5,0.4
			c-0.1,0.2-0.2,0.4-0.2,0.6c0,0.2,0,0.3,0.1,0.4c-1.9,1.6-4.2,2.5-6.7,2.5c-2.1,0-4.2-0.7-6-1.9l0.5-0.5c0.1-0.1,0.2-0.3,0.2-0.4
			c0-0.2,0-0.3-0.1-0.5l1.3-1.3c1.2,0.8,2.6,1.3,4,1.3c3.7,0,6.7-2.9,6.9-6.6h3.7c0.1,0,0.2,0,0.3-0.1c0.1-0.1,0.1-0.2,0.1-0.3
			s0-0.2-0.1-0.3C25.9,14.6,25.8,14.6,25.7,14.6z M15.1,19.3c-1.1,0-2.2-0.4-3-1.2c-0.8-0.7-1.3-1.8-1.4-2.9h1.1c0.1,0,0.1,0,0.2,0
			c0.1,0,0.1-0.1,0.1-0.1l1.3-2.1l0.9,5.3c0.1,0.4,0.6,0.4,0.7,0.1l1.5-4.3l1.1,2.5c0,0.1,0.1,0.1,0.1,0.1c0.1,0,0.1,0.1,0.2,0.1
			c0.1,0,0.1,0,0.2,0c0.1,0,0.1-0.1,0.1-0.1l0.9-1.3h0.3c-0.1,1.1-0.6,2.1-1.4,2.9C17.3,18.9,16.2,19.3,15.1,19.3z M19.1,14.6
			c-0.1,0-0.1,0-0.2,0c-0.1,0-0.1,0.1-0.1,0.1l-0.6,0.9l-1.2-2.7c-0.1-0.3-0.6-0.3-0.7,0l-1.4,3.8L14,11.9c0-0.3-0.5-0.4-0.7-0.1
			l-1.7,2.8h-0.9c0.1-1.1,0.6-2.1,1.4-2.9c0.8-0.7,1.9-1.2,3-1.2c1.1,0,2.2,0.4,3,1.2c0.8,0.7,1.3,1.8,1.4,2.9H19.1z"/>
		<path class="st0" d="M22.9,7.7c-0.1,0.1-0.2,0.1-0.3,0.1s-0.2,0-0.3-0.1c-1.8-1.8-4.3-2.9-6.9-3c-2.6-0.1-5.1,0.8-7.1,2.5
			c0.1,0.1,0.1,0.3,0.1,0.4c0,0.2-0.1,0.4-0.2,0.6C8.2,8.4,8.1,8.5,7.9,8.6C7.7,8.7,7.5,8.7,7.2,8.7C7,8.6,6.8,8.5,6.7,8.4
			C6.5,8.2,6.4,8,6.4,7.8c0-0.2,0-0.4,0.1-0.6C6.5,7,6.7,6.8,6.8,6.7C7,6.6,7.2,6.5,7.5,6.5c0.2,0,0.3,0,0.5,0.1
			C10,4.8,12.8,3.9,15.5,4c2.8,0.1,5.4,1.2,7.4,3.2C23,7.2,23,7.3,23,7.4C23,7.5,23,7.6,22.9,7.7z"/>
	</g>
</g>
</svg>
