<?xml version="1.0" encoding="utf-8"?>
<!-- Generator: Adobe Illustrator 27.9.0, SVG Export Plug-In . SVG Version: 6.00 Build 0)  -->
<svg version="1.1" id="Calque_1" xmlns="http://www.w3.org/2000/svg" xmlns:xlink="http://www.w3.org/1999/xlink" x="0px" y="0px"
	 viewBox="0 0 30 30" style="enable-background:new 0 0 30 30;" xml:space="preserve">
<style type="text/css">
	.st0{fill-rule:evenodd;clip-rule:evenodd;fill:#E0E0E0;}
</style>
<path class="st0" d="M12.9,6.5c-1.1,0.6-2.1,1.1-2.1,1.1c0,0.1,2.7,1.4,2.8,1.4c0,0,0.4-0.1,0.7-0.3L15,8.4l0.7,0.4l0.7,0.4l1.1-0.5
	c1.7-0.8,1.9-0.8,1.9-0.9c0,0-0.6-0.4-2.3-1.2c-0.8-0.4-1.6-0.8-1.7-0.9C15.2,5.5,15,5.4,15,5.4C15,5.4,14,5.9,12.9,6.5L12.9,6.5z
	 M7.9,9.1L6.7,9.7v2.7c0,1.5,0,2.7,0,2.7c0,0,0.6-0.3,1.3-0.6L9.3,14v-2.8l0.6,0.3c0.5,0.3,1,0.5,1.4,0.8l0.8,0.4l0.4-0.2
	c0.2-0.1,0.5-0.2,0.7-0.3c0.2-0.1,0.6-0.3,1-0.4c0.3-0.2,0.7-0.3,0.7-0.3c0.1,0-0.7-0.5-2.7-1.5c-1.6-0.8-2.9-1.4-2.9-1.4
	S8.5,8.8,7.9,9.1L7.9,9.1z M19.6,9.3c-0.8,0.4-1.5,0.7-1.5,0.7c0,0,0.4,0.3,1,0.6c0.5,0.3,1,0.6,1,0.6c0,0-0.5,0.3-1.1,0.5
	c-0.6,0.3-2.1,0.9-3.3,1.5L11.6,15c-1,0.5-2,0.9-2.1,0.9c-2.1,1-2.7,1.2-2.8,1.3c-0.1,0-0.1,0.3-0.1,1.6l0,1.6l1.1,0.5l1.1,0.5
	l1.5-0.7c0.8-0.4,1.5-0.7,1.5-0.7c0,0-0.1-0.1-0.3-0.2c-0.2-0.1-0.6-0.3-0.8-0.5c-0.3-0.2-0.6-0.3-0.6-0.3c-0.1,0-0.1-0.1-0.1-0.1
	c0,0,0.6-0.3,1.4-0.7c1.5-0.7,2.7-1.2,5.2-2.4c1.1-0.5,2.3-1,3.4-1.5c1-0.4,2.1-1,2.6-1.2l0.8-0.3l0-1.6l0-1.6l-1.1-0.6
	c-0.6-0.3-1.1-0.6-1.1-0.6C21,8.6,20.4,8.9,19.6,9.3L19.6,9.3z M22.9,15.1c-0.2,0.1-0.5,0.2-0.7,0.3c-0.2,0.1-0.7,0.3-0.9,0.4
	L20.8,16l0,1.4c0,0.8,0,1.4-0.1,1.4c-0.1,0-1.1-0.5-2.1-1.1c-0.7-0.4-0.8-0.4-1-0.3c-0.1,0-0.7,0.3-1.3,0.6
	c-0.6,0.3-1.2,0.5-1.2,0.5c0,0,1.2,0.7,2.8,1.5l2.9,1.5L22,21c0.7-0.3,1.2-0.7,1.3-0.7c0.1-0.1,0.1-5.4,0-5.4
	C23.3,14.9,23.1,15,22.9,15.1L22.9,15.1z M16.2,21.2c-0.2,0.1-0.4,0.2-0.6,0.3c-0.6,0.3-0.5,0.3-1.3-0.1c-0.5-0.3-0.7-0.3-0.8-0.3
	c-0.1,0-0.7,0.3-1.4,0.6c-0.7,0.3-1.3,0.6-1.3,0.6c-0.3,0,0.2,0.3,2,1.2l2.1,1.1l0.9-0.4c0.5-0.2,1.5-0.7,2.2-1.1
	c0.7-0.4,1.3-0.6,1.3-0.7c0,0-0.6-0.3-1.3-0.7L16.7,21L16.2,21.2z"/>
</svg>
