<?xml version="1.0" encoding="utf-8"?>
<!-- Generator: Adobe Illustrator 27.9.0, SVG Export Plug-In . SVG Version: 6.00 Build 0)  -->
<svg version="1.1" id="Calque_1" xmlns="http://www.w3.org/2000/svg" xmlns:xlink="http://www.w3.org/1999/xlink" x="0px" y="0px"
	 viewBox="0 0 30 30" style="enable-background:new 0 0 30 30;" xml:space="preserve">
<style type="text/css">
	.st0{fill:#E0E0E0;}
</style>
<path class="st0" d="M13.7,21.3c0.4,0,0.7,0.3,0.7,0.7c0,0.4-0.3,0.7-0.7,0.7s-0.7-0.3-0.7-0.7C13.1,21.6,13.4,21.3,13.7,21.3
	L13.7,21.3 M24,17.2c-0.4,0-0.7-0.3-0.7-0.7c0-0.4,0.3-0.7,0.7-0.7c0.4,0,0.7,0.3,0.7,0.7C24.6,17,24.4,17.2,24,17.2 M24,14.6
	c-1.1,0-2,0.9-2,2c0,0.2,0,0.5,0.1,0.7l-6.7,3.6c-0.4-0.6-1-0.8-1.7-0.8c-0.8,0-1.5,0.5-1.8,1.1l-6-3.2c-0.7-0.4-1.1-1.4-1-2.4
	c0-0.5,0.2-0.8,0.5-1c0.2-0.1,0.4-0.1,0.6,0l0,0c1.6,0.8,6.8,3.6,7,3.7c0.4,0.2,0.6,0.2,1.1-0.1l10.7-5.6c0.2-0.1,0.4-0.2,0.4-0.5
	c0-0.3-0.3-0.5-0.4-0.5c-0.6-0.3-1.5-0.8-2.4-1.1c-2-0.9-4.1-2-5.2-2.4c-0.8-0.5-1.5-0.1-1.6,0l-0.2,0.1c-4.4,2.2-10.3,5.1-10.5,5.3
	c-0.6,0.4-0.9,1.1-1,2c-0.1,1.4,0.7,2.9,1.7,3.5l6.3,3.3c0.2,1,1,1.7,2,1.7c1.1,0,2-0.8,2-2l7-3.8c0.4,0.3,0.8,0.5,1.2,0.5
	c1.1,0,2-0.9,2-2C26,15.5,25.1,14.6,24,14.6"/>
</svg>
