<?xml version="1.0" encoding="utf-8"?>
<!-- Generator: Adobe Illustrator 27.9.0, SVG Export Plug-In . SVG Version: 6.00 Build 0)  -->
<svg version="1.1" id="Calque_1" xmlns="http://www.w3.org/2000/svg" xmlns:xlink="http://www.w3.org/1999/xlink" x="0px" y="0px"
	 viewBox="0 0 242.9 242.9" style="enable-background:new 0 0 242.9 242.9;" xml:space="preserve">
<style type="text/css">
	.st0{fill:#270A33;}
	.st1{fill:#C334F7;}
</style>
<circle class="st0" cx="121.5" cy="121.5" r="111"/>
<g>
	<path class="st1" d="M84.7,145.9l-24.5-24.5c-8.5-8.5-12.7-18.6-12.7-30.6c0-12,4.2-22.1,12.7-30.6s18.7-12.8,30.6-12.8
		c12,0,22.1,4.2,30.6,12.7l24.5,24.5L133.7,97l-24.5-24.5c-5.1-5.1-11.2-7.6-18.4-7.6s-13.3,2.5-18.4,7.6
		c-5.1,5.1-7.6,11.2-7.6,18.4c0,7.1,2.5,13.3,7.6,18.4l24.5,24.5L84.7,145.9z"/>
	
		<rect x="112.8" y="86.9" transform="matrix(0.7071 -0.7071 0.7071 0.7071 -50.3188 121.4802)" class="st1" width="17.4" height="69.2"/>
	<path class="st1" d="M97,158.2l12.3-12.3l24.5,24.5c5.1,5.1,11.2,7.6,18.4,7.6s13.3-2.5,18.4-7.6c5.1-5.1,7.6-11.2,7.6-18.4
		c0-7.1-2.5-13.3-7.6-18.4L146,109.2L158.2,97l24.5,24.5c8.5,8.5,12.7,18.6,12.7,30.6c0,12-4.2,22.1-12.7,30.6s-18.6,12.7-30.6,12.7
		c-12,0-22.1-4.2-30.6-12.7L97,158.2L97,158.2z"/>
</g>
</svg>
